<?xml version="1.0" standalone="no"?>
<svg xmlns="http://www.w3.org/2000/svg" viewBox="0 0 1024 1024">
  <path d="M832 64H192c-17.7 0-32 14.3-32 32v832c0 17.7 14.3 32 32 32h640c17.7 0 32-14.3 32-32V96c0-17.7-14.3-32-32-32zM280 766.9V665.1c47.9 30.3 88.9 45.1 123 44.4 18.6-.4 31.6-4.2 39.2-11.4 7.6-7.2 11.4-17.9 11.4-32.1 0-7.6-1.5-14.8-4.5-21.6-3-6.8-8.6-13.8-16.9-21.1-8.3-7.3-22.8-17.9-43.5-31.8-20.7-13.9-35.8-24.7-45.2-32.4-9.4-7.7-17.5-16.4-24.2-26.1-6.7-9.7-11.7-20.5-15.2-32.2-3.5-11.8-5.2-24.9-5.2-39.3 0-27.3 7.4-50.6 22.2-69.8 14.8-19.2 35.6-32.1 62.5-38.7 13.9-3.5 29.7-5.2 47.5-5.2 14.8 0 28.5 1.1 41.1 3.3 12.6 2.2 26.3 5.7 41.1 10.5v93.8c-38.8-26.3-75.8-39.4-111-39.4-16.4 0-28.6 3.2-36.5 9.5-7.9 6.3-11.9 15.5-11.9 27.5 0 11.2 4.4 21.1 13.1 29.7 8.8 8.6 26.8 20.6 54.2 36 27.3 15.4 46.5 27.4 57.4 36 10.9 8.6 19.9 18.2 27 28.8 7.1 10.6 12.4 22.4 15.7 35.5 3.3 13.1 5 27.3 5 42.7 0 28.8-7.8 53.5-23.3 74.2-15.5 20.7-37.2 34.9-65.1 42.6-15.9 4.3-33.7 6.5-53.6 6.5-16.4 0-31.4-1.4-45.1-4.2-13.7-2.8-27.2-6.9-40.6-12.3z" fill="currentColor"/>
</svg> 