<?xml version="1.0" standalone="no"?>
<svg xmlns="http://www.w3.org/2000/svg" viewBox="0 0 1024 1024">
  <path d="M892 508H726v-64c0-4.4-3.6-8-8-8h-56c-4.4 0-8 3.6-8 8v64H548v-64c0-4.4-3.6-8-8-8h-56c-4.4 0-8 3.6-8 8v64H360v-64c0-4.4-3.6-8-8-8h-56c-4.4 0-8 3.6-8 8v64H132c-4.4 0-8 3.6-8 8v56c0 4.4 3.6 8 8 8h166v64c0 4.4 3.6 8 8 8h56c4.4 0 8-3.6 8-8v-64h116v64c0 4.4 3.6 8 8 8h56c4.4 0 8-3.6 8-8v-64h116v64c0 4.4 3.6 8 8 8h56c4.4 0 8-3.6 8-8v-64h166c4.4 0 8-3.6 8-8v-56c0-4.4-3.6-8-8-8z" fill="currentColor"/>
</svg> 